<svg xmlns="http://www.w3.org/2000/svg" viewBox="0 0 256 256" role="img" aria-labelledby="title desc">
  <title id="title">Farcaster</title>
  <desc id="desc">A glowing portal opens from a dark field onto a warm sky, distant moon, and open ground.</desc>
  <defs>
    <linearGradient id="sky" x1="128" y1="42" x2="128" y2="174" gradientUnits="userSpaceOnUse">
      <stop stop-color="#d66d35"/>
      <stop offset="1" stop-color="#efa45b"/>
    </linearGradient>
    <linearGradient id="ground" x1="128" y1="158" x2="128" y2="198" gradientUnits="userSpaceOnUse">
      <stop stop-color="#465042"/>
      <stop offset="1" stop-color="#202825"/>
    </linearGradient>
    <radialGradient id="planet" cx="34%" cy="38%" r="68%">
      <stop stop-color="#aaa9a3"/>
      <stop offset=".58" stop-color="#777872"/>
      <stop offset="1" stop-color="#4a4e49"/>
    </radialGradient>
    <radialGradient id="planet-shade" cx="28%" cy="25%" r="78%">
      <stop stop-color="#fff" stop-opacity=".2"/>
      <stop offset=".5" stop-color="#fff" stop-opacity="0"/>
      <stop offset=".8" stop-color="#202523" stop-opacity=".14"/>
      <stop offset="1" stop-color="#111513" stop-opacity=".36"/>
    </radialGradient>
    <radialGradient id="moon" cx="32%" cy="28%" r="72%">
      <stop stop-color="#f4dba7"/>
      <stop offset=".62" stop-color="#deb67d"/>
      <stop offset="1" stop-color="#ad7958"/>
    </radialGradient>
    <filter id="moon-mottle" x="-15%" y="-15%" width="130%" height="130%">
      <feTurbulence type="fractalNoise" baseFrequency=".11" numOctaves="1" seed="67" result="noise"/>
      <feColorMatrix in="noise" type="saturate" values="0" result="mono"/>
      <feGaussianBlur in="mono" stdDeviation=".25" result="soft-mottle"/>
      <feColorMatrix in="soft-mottle" type="matrix" values="1.45 0 0 0 -.22  0 1.45 0 0 -.22  0 0 1.45 0 -.22  0 0 0 .55 0" result="texture"/>
      <feComposite in="texture" in2="SourceGraphic" operator="in"/>
    </filter>
    <filter id="grain" x="-10%" y="-10%" width="120%" height="120%">
      <feTurbulence type="fractalNoise" baseFrequency=".72" numOctaves="2" seed="23"/>
      <feColorMatrix type="matrix" values="1 0 0 0 0  0 1 0 0 0  0 0 1 0 0  0 0 0 .45 0"/>
    </filter>
    <filter id="portal-glow" x="0" y="0" width="256" height="256" filterUnits="userSpaceOnUse" color-interpolation-filters="sRGB">
      <feGaussianBlur in="SourceGraphic" stdDeviation="2.2" result="blur"/>
      <feFlood flood-color="#effdff" flood-opacity=".82" result="glow-color"/>
      <feComposite in="glow-color" in2="blur" operator="in" result="glow"/>
      <feMerge>
        <feMergeNode in="glow"/>
        <feMergeNode in="SourceGraphic"/>
      </feMerge>
    </filter>
    <clipPath id="window">
      <path d="M23 198C23 112 70 42 128 42C186 42 233 112 233 198Z"/>
    </clipPath>
    <clipPath id="planet-disc">
      <circle cx="202" cy="88" r="51"/>
    </clipPath>
  </defs>

  <rect width="256" height="256" rx="56" fill="#202322"/>

  <g clip-path="url(#window)">
    <rect x="23" y="42" width="210" height="156" fill="url(#sky)"/>
    <circle cx="202" cy="88" r="51" fill="url(#planet)"/>
    <circle cx="202" cy="88" r="51" fill="#e78348" opacity=".24"/>
    <circle cx="202" cy="88" r="51" fill="url(#planet-shade)"/>
    <g clip-path="url(#planet-disc)" fill="none" stroke-linecap="round">
      <path d="M151 68C176 57 210 59 250 76" stroke="#e1d6c8" stroke-opacity=".17" stroke-width="7"/>
      <path d="M149 92C177 82 214 87 252 103" stroke="#484d49" stroke-opacity=".16" stroke-width="9"/>
      <path d="M157 115C185 105 216 109 244 120" stroke="#d7b095" stroke-opacity=".13" stroke-width="5"/>
    </g>
    <circle cx="178" cy="92" r="12" fill="url(#moon)"/>
    <circle cx="178" cy="92" r="12" fill="#fff" filter="url(#moon-mottle)" opacity=".28"/>
    <path d="M23 154C49 151 69 140 91 143C113 147 129 159 151 160C177 160 198 148 233 152V198H23Z" fill="#765842"/>
    <path d="M23 154C49 151 69 140 91 143C113 147 129 159 151 160C177 160 198 148 233 152" fill="none" stroke="#efad70" stroke-opacity=".2" stroke-width="3"/>
    <path d="M23 168C56 158 84 160 111 168C139 178 169 174 194 164C209 158 224 159 233 163V198H23Z" fill="url(#ground)"/>
    <rect x="23" y="42" width="210" height="156" filter="url(#grain)" opacity=".18"/>
  </g>

  <path d="M23 198C23 112 70 42 128 42C186 42 233 112 233 198Z" fill="none" stroke="#f8ffff" stroke-width="1.5" stroke-linejoin="round" filter="url(#portal-glow)"/>
</svg>
